name C:\Users\u0150099\Documents\master_thesis\3dpredictsim\Results\debug\Fal_s1_mtjc2_sc_cspx10_oy2_ATx70_Fpsl10_MTc4_MTPm_k1_d01_MTJm_nl_MG_exp5_table_d01_PF_Natali2010_ls146_FDB2_lTs125_Fpsl10_ig21_wAk5e+04_wa2e+03_wpMnD1e+03.mot
datacolumns 130
datarows 4
range 1.04114538 1.07237974
endheader
time	pelvis_tilt	pelvis_list	pelvis_rotation	pelvis_tx	pelvis_ty	pelvis_tz	hip_flexion_l	hip_adduction_l	hip_rotation_l	hip_flexion_r	hip_adduction_r	hip_rotation_r	knee_angle_l	knee_angle_r	ankle_angle_l	ankle_angle_r	subtalar_angle_l	subtalar_angle_r	mtj_angle_l	mtj_angle_r	mtp_angle_l	mtp_angle_r	lumbar_extension	lumbar_bending	lumbar_rotation	arm_flex_l	arm_add_l	arm_rot_l	arm_flex_r	arm_add_r	arm_rot_r	elbow_flex_l	elbow_flex_r	pro_sup_l	pro_sup_r	glut_med1_l/activation	glut_med2_l/activation	glut_med3_l/activation	glut_min1_l/activation	glut_min2_l/activation	glut_min3_l/activation	semimem_l/activation	semiten_l/activation	bifemlh_l/activation	bifemsh_l/activation	sar_l/activation	add_long_l/activation	add_brev_l/activation	add_mag1_l/activation	add_mag2_l/activation	add_mag3_l/activation	tfl_l/activation	pect_l/activation	grac_l/activation	glut_max1_l/activation	glut_max2_l/activation	glut_max3_l/activation	iliacus_l/activation	psoas_l/activation	quad_fem_l/activation	gem_l/activation	peri_l/activation	rect_fem_l/activation	vas_med_l/activation	vas_int_l/activation	vas_lat_l/activation	med_gas_l/activation	lat_gas_l/activation	soleus_l/activation	tib_post_l/activation	flex_dig_l/activation	flex_hal_l/activation	tib_ant_l/activation	per_brev_l/activation	per_long_l/activation	per_tert_l/activation	ext_dig_l/activation	ext_hal_l/activation	FDB_l/activation	ercspn_l/activation	intobl_l/activation	extobl_l/activation	glut_med1_r/activation	glut_med2_r/activation	glut_med3_r/activation	glut_min1_r/activation	glut_min2_r/activation	glut_min3_r/activation	semimem_r/activation	semiten_r/activation	bifemlh_r/activation	bifemsh_r/activation	sar_r/activation	add_long_r/activation	add_brev_r/activation	add_mag1_r/activation	add_mag2_r/activation	add_mag3_r/activation	tfl_r/activation	pect_r/activation	grac_r/activation	glut_max1_r/activation	glut_max2_r/activation	glut_max3_r/activation	iliacus_r/activation	psoas_r/activation	quad_fem_r/activation	gem_r/activation	peri_r/activation	rect_fem_r/activation	vas_med_r/activation	vas_int_r/activation	vas_lat_r/activation	med_gas_r/activation	lat_gas_r/activation	soleus_r/activation	tib_post_r/activation	flex_dig_r/activation	flex_hal_r/activation	tib_ant_r/activation	per_brev_r/activation	per_long_r/activation	per_tert_r/activation	ext_dig_r/activation	ext_hal_r/activation	FDB_r/activation	ercspn_r/activation	intobl_r/activation	extobl_r/activation	
          1.04114538	         -2.92160972	         -1.64196582	          2.83882270	          1.38472336	          0.90991910	         -0.00281708	        -12.47434965	          1.40897751	          8.72207760	         30.00701264	          2.92048032	         -2.76248264	        -17.53420159	        -14.14237373	          9.27927235	         11.82999725	          8.10183226	          5.09932647	         -1.44060267	          1.71570239	         15.93080230	         -9.03773215	         -4.18070051	          0.99347225	         -1.68508823	          3.47356726	        -13.89968440	         19.38605272	         -4.18185043	        -13.52660873	          5.74213734	         40.28303736	         26.58842815	         86.51662706	         86.51662706	          0.23580779	          0.05000020	          0.05000005	          0.38964985	          0.13771356	          0.05252775	          0.05000104	          0.05000017	          0.05000013	          0.05000084	          0.07224467	          0.05000036	          0.05000017	          0.05000032	          0.05000081	          0.05000049	          0.48249321	          0.05000433	          0.05000034	          0.05000100	          0.05000054	          0.05000033	          0.37893092	          0.80902074	          0.05000006	          0.05000024	          0.05000006	          0.36930563	          0.16639423	          0.16405397	          0.14054896	          0.35692761	          0.45930832	          0.26878604	          0.54343839	          0.37914857	          0.53554104	          0.05000001	          0.06885787	          0.21301132	          0.05000007	          0.05000004	          0.08841660	          0.74800845	          0.05000002	          0.05000001	          0.05000002	          0.05000018	          0.05000013	          0.05867598	          0.05000009	          0.05000013	          0.05000053	          0.43555937	          0.06885824	          0.31542908	          0.07566552	          0.05867619	          0.11744846	          0.16733498	          0.09368371	          0.11313370	          0.13339186	          0.05000118	          0.05865530	          0.14259567	          0.05001080	          0.05867615	          0.08549820	          0.06566476	          0.07273202	          0.18930973	          0.06048229	          0.05000064	          0.05000005	          0.05000013	          0.05000012	          0.05000009	          0.05991318	          0.05000187	          0.05000025	          0.05802979	          0.06219017	          0.05000057	          0.37652072	          0.05000057	          0.05359958	          0.27192316	          0.64695741	          0.38144429	          0.41687863	          0.05978042	          0.08492386	          0.10315675	
          1.05155684	         -2.92465227	         -1.62603405	          3.08187271	          1.40103031	          0.90896763	         -0.00265354	        -13.08851161	          1.15230393	          8.79402556	         29.76059671	          3.12163897	         -2.79735601	        -17.97941414	        -14.47902173	          8.20234985	         11.49787459	          8.74884573	          5.25864942	         -2.40443343	          1.78529231	         18.38308902	         -9.15594062	         -4.01204244	          1.09406220	         -1.75436278	          3.05860307	        -13.87721416	         19.31265516	         -5.06390559	        -13.47546314	          4.70904671	         41.88137538	         26.48892636	         86.51662706	         86.51662706	          0.20093990	          0.05000007	          0.05000002	          0.33203400	          0.11735048	          0.05000017	          0.05000191	          0.05000023	          0.05000011	          0.05000047	          0.06156230	          0.07917950	          0.06294679	          0.05000041	          0.05000107	          0.05000087	          0.51585851	          0.05867255	          0.05000021	          0.05000046	          0.05000029	          0.05000026	          0.32289998	          0.76510229	          0.05000002	          0.05000013	          0.05000026	          0.31469817	          0.17578736	          0.20069893	          0.17606066	          0.32071438	          0.41203399	          0.22904176	          0.49545646	          0.32308614	          0.45635344	          0.05000000	          0.05867619	          0.18151422	          0.05000004	          0.05000002	          0.07534282	          0.63740351	          0.05000000	          0.05000009	          0.07249691	          0.05867619	          0.05867620	          0.05000011	          0.05867625	          0.05867624	          0.05867585	          0.40127432	          0.05867648	          0.28325262	          0.06447719	          0.05000026	          0.13061631	          0.23521829	          0.07983136	          0.13849089	          0.13361817	          0.05000015	          0.05000503	          0.12151084	          0.05000041	          0.05000013	          0.07285594	          0.08728589	          0.08721081	          0.49943188	          0.24768289	          0.13540940	          0.05000003	          0.05000004	          0.05000004	          0.05000003	          0.05105413	          0.05000008	          0.05000000	          0.05202878	          0.05867654	          0.05867635	          0.39025936	          0.05000020	          0.08298951	          0.31292823	          0.68214425	          0.36963492	          0.35523662	          0.05094094	          0.07236652	          0.08790339	
          1.06196829	         -2.92585120	         -1.62070729	          3.30557478	          1.41759426	          0.90804567	         -0.00246526	        -13.62980860	          0.87839788	          8.83396203	         29.49827511	          3.29125857	         -2.82255757	        -18.51449292	        -15.45517461	          6.95363463	         10.79083916	          9.43165015	          5.42117544	         -3.44920593	          1.98810982	         21.00768727	         -9.17335401	         -3.83163319	          1.20728281	         -1.81696231	          2.58041002	        -13.84426157	         19.17555396	         -5.92691630	        -13.45039626	          3.97427249	         43.46300214	         26.31441686	         86.51662706	         86.51662706	          0.17122775	          0.05867633	          0.05867629	          0.28293752	          0.09999839	          0.05867641	          0.05000140	          0.05000074	          0.05867616	          0.05000006	          0.05245958	          0.19941297	          0.10143957	          0.14015345	          0.05867682	          0.05868042	          0.43958108	          0.05000049	          0.05936563	          0.05867676	          0.05867660	          0.05867660	          0.27515409	          0.72746948	          0.06885789	          0.05867694	          0.05867621	          0.26816507	          0.18834717	          0.20495739	          0.19028224	          0.27329177	          0.35110852	          0.19517429	          0.42219540	          0.27531277	          0.38887439	          0.05000011	          0.05000001	          0.15467446	          0.05000002	          0.05000001	          0.06420219	          0.54315327	          0.06300641	          0.06885794	          0.06885787	          0.05000000	          0.05000003	          0.10519683	          0.05000005	          0.05000005	          0.05000006	          0.34257056	          0.05000024	          0.24136924	          0.05494323	          0.08080646	          0.11130279	          0.32786146	          0.27632660	          0.11801335	          0.16189321	          0.05867647	          0.07821451	          0.10354361	          0.05000022	          0.06590409	          0.13739506	          0.08080584	          0.07904048	          0.69618600	          0.21105911	          0.11538710	          0.06885808	          0.09181873	          0.12265468	          0.10459421	          0.06885793	          0.06885799	          0.06885794	          0.05000005	          0.05000031	          0.05000017	          0.46425257	          0.06885817	          0.07071820	          0.49512707	          0.70537291	          0.41455933	          0.30270924	          0.05000000	          0.06166598	          0.07490548	
          1.07237974	         -2.92583690	         -1.64767478	          3.51176536	          1.43436958	          0.90720948	         -0.00229309	        -14.09144330	          0.57844588	          8.85755817	         29.12743198	          3.39482615	         -2.75194022	        -19.14002112	        -16.59890335	          5.52060322	         10.03732135	         10.09866131	          5.60019948	         -4.54797183	          2.12069514	         23.71073805	         -9.14101016	         -3.63917222	          1.35739802	         -1.87331909	          2.04932297	        -13.79748455	         19.01010617	         -6.74867827	        -13.45876576	          3.53783537	         45.01439928	         26.02691380	         86.51662706	         86.51662706	          0.17253063	          0.05000013	          0.05000007	          0.24110106	          0.08521210	          0.05000023	          0.05000124	          0.05000023	          0.05000010	          0.06604817	          0.05867689	          0.22210661	          0.13600009	          0.11942961	          0.05000089	          0.05000373	          0.50929844	          0.06885851	          0.05058761	          0.05000068	          0.05000044	          0.05000040	          0.23446824	          0.83280772	          0.05867616	          0.05000066	          0.05000003	          0.22851261	          0.16049706	          0.17465119	          0.16214599	          0.23288124	          0.29919156	          0.16631467	          0.35976711	          0.23460342	          0.33137316	          0.16665224	          0.12670106	          0.13180343	          0.05000033	          0.05000037	          0.05470889	          0.46283942	          0.08531235	          0.05867620	          0.05867617	          0.31670548	          0.33310706	          0.40500703	          0.42012225	          0.28361547	          0.31820917	          0.30564126	          0.17374831	          0.23189591	          0.12000413	          0.06885800	          0.09484494	          0.27938200	          0.23546740	          0.10056349	          0.23533709	          0.05000033	          0.06664960	          0.22429007	          0.05000088	          0.17811451	          0.23042203	          0.06885743	          0.06735310	          0.59324386	          0.17985076	          0.18902572	          0.05867632	          0.07824188	          0.10451824	          0.08912830	          0.05867619	          0.05867625	          0.05867620	          0.09450686	          0.06769948	          0.06634812	          0.52460314	          0.05867642	          0.10192714	          0.51106070	          0.82608603	          0.65442314	          0.58839972	          0.06583254	          0.09482854	          0.06382952	
